<mxfile host="Electron" agent="Mozilla/5.0 (Windows NT 10.0; Win64; x64) AppleWebKit/537.36 (KHTML, like Gecko) draw.io/28.1.2 Chrome/138.0.7204.243 Electron/37.4.0 Safari/537.36" version="28.1.2">
  <diagram name="sequence-diagram" id="uziYBjDgdjmEZmq8REtS">
    <mxGraphModel dx="1554" dy="914" grid="1" gridSize="10" guides="1" tooltips="1" connect="1" arrows="1" fold="1" page="1" pageScale="1" pageWidth="1169" pageHeight="827" math="0" shadow="0">
      <root>
        <mxCell id="0" />
        <mxCell id="1" parent="0" />
        <mxCell id="Ftp5oIiTg3yyGEIrbdFl-1" value="디스코드 봇&lt;div&gt;(외부 서비스)&lt;/div&gt;" style="shape=umlLifeline;perimeter=lifelinePerimeter;whiteSpace=wrap;html=1;container=1;dropTarget=0;collapsible=0;recursiveResize=0;outlineConnect=0;portConstraint=eastwest;newEdgeStyle={&quot;curved&quot;:0,&quot;rounded&quot;:0};" vertex="1" parent="1">
          <mxGeometry x="50" y="40" width="100" height="780" as="geometry" />
        </mxCell>
        <mxCell id="Ftp5oIiTg3yyGEIrbdFl-2" value="디스코드 서비스&lt;div&gt;(디스코드응답제어)&lt;/div&gt;" style="shape=umlLifeline;perimeter=lifelinePerimeter;whiteSpace=wrap;html=1;container=1;dropTarget=0;collapsible=0;recursiveResize=0;outlineConnect=0;portConstraint=eastwest;newEdgeStyle={&quot;curved&quot;:0,&quot;rounded&quot;:0};" vertex="1" parent="1">
          <mxGeometry x="250" y="40" width="100" height="780" as="geometry" />
        </mxCell>
        <mxCell id="Ftp5oIiTg3yyGEIrbdFl-6" value="명령어 감지" style="html=1;points=[[0,0,0,0,5],[0,1,0,0,-5],[1,0,0,0,5],[1,1,0,0,-5]];perimeter=orthogonalPerimeter;outlineConnect=0;targetShapes=umlLifeline;portConstraint=eastwest;newEdgeStyle={&quot;curved&quot;:0,&quot;rounded&quot;:0};" vertex="1" parent="Ftp5oIiTg3yyGEIrbdFl-2">
          <mxGeometry x="45" y="100" width="10" height="80" as="geometry" />
        </mxCell>
        <mxCell id="Ftp5oIiTg3yyGEIrbdFl-11" value="명령을 분석해 코어 서비스에서&lt;div&gt;&amp;nbsp;처리하기 좋은 형태로 변환&lt;/div&gt;" style="html=1;points=[[0,0,0,0,5],[0,1,0,0,-5],[1,0,0,0,5],[1,1,0,0,-5]];perimeter=orthogonalPerimeter;outlineConnect=0;targetShapes=umlLifeline;portConstraint=eastwest;newEdgeStyle={&quot;curved&quot;:0,&quot;rounded&quot;:0};" vertex="1" parent="Ftp5oIiTg3yyGEIrbdFl-2">
          <mxGeometry x="45" y="320" width="10" height="80" as="geometry" />
        </mxCell>
        <mxCell id="Ftp5oIiTg3yyGEIrbdFl-3" value="코어 서비스&lt;div&gt;(중앙 관제)&lt;/div&gt;" style="shape=umlLifeline;perimeter=lifelinePerimeter;whiteSpace=wrap;html=1;container=1;dropTarget=0;collapsible=0;recursiveResize=0;outlineConnect=0;portConstraint=eastwest;newEdgeStyle={&quot;curved&quot;:0,&quot;rounded&quot;:0};" vertex="1" parent="1">
          <mxGeometry x="450" y="40" width="100" height="780" as="geometry" />
        </mxCell>
        <mxCell id="Ftp5oIiTg3yyGEIrbdFl-17" value="유효한 처리결과인지 확인" style="html=1;points=[[0,0,0,0,5],[0,1,0,0,-5],[1,0,0,0,5],[1,1,0,0,-5]];perimeter=orthogonalPerimeter;outlineConnect=0;targetShapes=umlLifeline;portConstraint=eastwest;newEdgeStyle={&quot;curved&quot;:0,&quot;rounded&quot;:0};" vertex="1" parent="Ftp5oIiTg3yyGEIrbdFl-3">
          <mxGeometry x="45" y="545" width="10" height="80" as="geometry" />
        </mxCell>
        <mxCell id="Ftp5oIiTg3yyGEIrbdFl-4" value="AI 서비스&lt;div&gt;(LLM 처리)&lt;/div&gt;" style="shape=umlLifeline;perimeter=lifelinePerimeter;whiteSpace=wrap;html=1;container=1;dropTarget=0;collapsible=0;recursiveResize=0;outlineConnect=0;portConstraint=eastwest;newEdgeStyle={&quot;curved&quot;:0,&quot;rounded&quot;:0};" vertex="1" parent="1">
          <mxGeometry x="650" y="40" width="100" height="780" as="geometry" />
        </mxCell>
        <mxCell id="Ftp5oIiTg3yyGEIrbdFl-14" value="시스템 프롬프트 설정" style="html=1;points=[[0,0,0,0,5],[0,1,0,0,-5],[1,0,0,0,5],[1,1,0,0,-5]];perimeter=orthogonalPerimeter;outlineConnect=0;targetShapes=umlLifeline;portConstraint=eastwest;newEdgeStyle={&quot;curved&quot;:0,&quot;rounded&quot;:0};" vertex="1" parent="Ftp5oIiTg3yyGEIrbdFl-4">
          <mxGeometry x="45" y="100" width="10" height="80" as="geometry" />
        </mxCell>
        <mxCell id="Ftp5oIiTg3yyGEIrbdFl-15" value="명령분석&lt;div&gt;누가 언제 어디서 몇점을 같은 정보를 가공&lt;/div&gt;" style="html=1;points=[[0,0,0,0,5],[0,1,0,0,-5],[1,0,0,0,5],[1,1,0,0,-5]];perimeter=orthogonalPerimeter;outlineConnect=0;targetShapes=umlLifeline;portConstraint=eastwest;newEdgeStyle={&quot;curved&quot;:0,&quot;rounded&quot;:0};" vertex="1" parent="Ftp5oIiTg3yyGEIrbdFl-4">
          <mxGeometry x="45" y="464" width="10" height="80" as="geometry" />
        </mxCell>
        <mxCell id="Ftp5oIiTg3yyGEIrbdFl-13" value="명령 분석 요청" style="html=1;verticalAlign=bottom;endArrow=block;curved=0;rounded=0;" edge="1" parent="Ftp5oIiTg3yyGEIrbdFl-4">
          <mxGeometry width="80" relative="1" as="geometry">
            <mxPoint x="-150" y="464" as="sourcePoint" />
            <mxPoint x="49.5" y="464" as="targetPoint" />
          </mxGeometry>
        </mxCell>
        <mxCell id="Ftp5oIiTg3yyGEIrbdFl-16" value="처리결과 반환" style="html=1;verticalAlign=bottom;endArrow=open;dashed=1;endSize=8;curved=0;rounded=0;" edge="1" parent="Ftp5oIiTg3yyGEIrbdFl-4">
          <mxGeometry relative="1" as="geometry">
            <mxPoint x="50" y="544" as="sourcePoint" />
            <mxPoint x="-150.5" y="544" as="targetPoint" />
          </mxGeometry>
        </mxCell>
        <mxCell id="Ftp5oIiTg3yyGEIrbdFl-5" value="사용자 채팅 전송" style="html=1;verticalAlign=bottom;endArrow=open;curved=0;rounded=0;endFill=0;" edge="1" parent="1" target="Ftp5oIiTg3yyGEIrbdFl-2">
          <mxGeometry width="80" relative="1" as="geometry">
            <mxPoint x="100" y="140" as="sourcePoint" />
            <mxPoint x="180" y="140" as="targetPoint" />
          </mxGeometry>
        </mxCell>
        <mxCell id="Ftp5oIiTg3yyGEIrbdFl-8" value="유효하지 않은 명령어" style="shape=umlFrame;whiteSpace=wrap;html=1;pointerEvents=0;width=80;height=30;" vertex="1" parent="1">
          <mxGeometry x="10" y="240" width="380" height="100" as="geometry" />
        </mxCell>
        <mxCell id="Ftp5oIiTg3yyGEIrbdFl-9" value="로그를 남기고 종료" style="html=1;points=[[0,0,0,0,5],[0,1,0,0,-5],[1,0,0,0,5],[1,1,0,0,-5]];perimeter=orthogonalPerimeter;outlineConnect=0;targetShapes=umlLifeline;portConstraint=eastwest;newEdgeStyle={&quot;curved&quot;:0,&quot;rounded&quot;:0};" vertex="1" parent="1">
          <mxGeometry x="295" y="250" width="10" height="80" as="geometry" />
        </mxCell>
        <mxCell id="Ftp5oIiTg3yyGEIrbdFl-12" value="명령을 전달" style="html=1;verticalAlign=bottom;endArrow=block;curved=0;rounded=0;" edge="1" parent="1" target="Ftp5oIiTg3yyGEIrbdFl-3">
          <mxGeometry width="80" relative="1" as="geometry">
            <mxPoint x="300" y="440" as="sourcePoint" />
            <mxPoint x="380" y="440" as="targetPoint" />
          </mxGeometry>
        </mxCell>
        <mxCell id="Ftp5oIiTg3yyGEIrbdFl-18" value="유효할때까지 재귀" style="shape=umlFrame;whiteSpace=wrap;html=1;pointerEvents=0;" vertex="1" parent="1">
          <mxGeometry x="390" y="480" width="430" height="200" as="geometry" />
        </mxCell>
        <mxCell id="Ftp5oIiTg3yyGEIrbdFl-20" value="처리결과 반환" style="html=1;verticalAlign=bottom;endArrow=open;dashed=1;endSize=8;curved=0;rounded=0;" edge="1" parent="1">
          <mxGeometry x="-0.0025" relative="1" as="geometry">
            <mxPoint x="495.5" y="800" as="sourcePoint" />
            <mxPoint x="300" y="800" as="targetPoint" />
            <mxPoint as="offset" />
          </mxGeometry>
        </mxCell>
        <mxCell id="Ftp5oIiTg3yyGEIrbdFl-21" value="처리결과 반환" style="html=1;verticalAlign=bottom;endArrow=open;dashed=1;endSize=8;curved=0;rounded=0;" edge="1" parent="1">
          <mxGeometry relative="1" as="geometry">
            <mxPoint x="300.25" y="810" as="sourcePoint" />
            <mxPoint x="99.75" y="810" as="targetPoint" />
          </mxGeometry>
        </mxCell>
        <mxCell id="Ftp5oIiTg3yyGEIrbdFl-22" value="최초 1회" style="shape=umlFrame;whiteSpace=wrap;html=1;pointerEvents=0;" vertex="1" parent="1">
          <mxGeometry x="590" y="120" width="230" height="120" as="geometry" />
        </mxCell>
        <mxCell id="Ftp5oIiTg3yyGEIrbdFl-23" value="DB&lt;div&gt;(pgSQL)&lt;/div&gt;" style="shape=umlLifeline;perimeter=lifelinePerimeter;whiteSpace=wrap;html=1;container=1;dropTarget=0;collapsible=0;recursiveResize=0;outlineConnect=0;portConstraint=eastwest;newEdgeStyle={&quot;curved&quot;:0,&quot;rounded&quot;:0};" vertex="1" parent="1">
          <mxGeometry x="850" y="40" width="100" height="780" as="geometry" />
        </mxCell>
        <mxCell id="Ftp5oIiTg3yyGEIrbdFl-19" value="처리결과 DB에 INSERT" style="html=1;points=[[0,0,0,0,5],[0,1,0,0,-5],[1,0,0,0,5],[1,1,0,0,-5]];perimeter=orthogonalPerimeter;outlineConnect=0;targetShapes=umlLifeline;portConstraint=eastwest;newEdgeStyle={&quot;curved&quot;:0,&quot;rounded&quot;:0};" vertex="1" parent="Ftp5oIiTg3yyGEIrbdFl-23">
          <mxGeometry x="45" y="670" width="10" height="80" as="geometry" />
        </mxCell>
        <mxCell id="Ftp5oIiTg3yyGEIrbdFl-24" value="DB에 삽입 요청" style="html=1;verticalAlign=bottom;endArrow=block;curved=0;rounded=0;" edge="1" parent="1" target="Ftp5oIiTg3yyGEIrbdFl-23">
          <mxGeometry width="80" relative="1" as="geometry">
            <mxPoint x="500" y="710" as="sourcePoint" />
            <mxPoint x="580" y="710" as="targetPoint" />
          </mxGeometry>
        </mxCell>
        <mxCell id="Ftp5oIiTg3yyGEIrbdFl-25" value="처리결과 반환" style="html=1;verticalAlign=bottom;endArrow=open;dashed=1;endSize=8;curved=0;rounded=0;" edge="1" parent="1" target="Ftp5oIiTg3yyGEIrbdFl-3">
          <mxGeometry relative="1" as="geometry">
            <mxPoint x="900" y="790" as="sourcePoint" />
            <mxPoint x="820" y="790" as="targetPoint" />
          </mxGeometry>
        </mxCell>
      </root>
    </mxGraphModel>
  </diagram>
</mxfile>
